<svg width="38" height="36" viewBox="0 0 38 36" fill="none" xmlns="http://www.w3.org/2000/svg">
                                <path d="M37.0706 23.533C36.5198 23.0073 35.8108 22.7232 35.0885 22.6792C35.6627 21.1037 35.9543 19.4449 35.9543 17.7297C35.9543 14.6993 35.0394 11.8119 33.3085 9.37994C33.0638 9.03604 32.5952 8.96205 32.2621 9.21466C31.929 9.46726 31.8573 9.95064 32.102 10.2945C33.6429 12.4594 34.4573 15.0305 34.4573 17.7297C34.4573 19.6108 34.0646 21.4152 33.2919 23.0977C33.0848 23.2175 32.8892 23.3621 32.7105 23.5326L27.6479 28.3575C27.5727 28.4293 27.2298 28.6624 25.9655 28.6624C25.9575 28.6624 25.9495 28.6624 25.9415 28.6624C23.9541 28.6568 20.9294 28.6513 18.6446 28.647L17.5669 28.6451C16.987 28.6451 16.5152 28.2221 16.5152 27.7022C16.5152 27.19 16.9969 26.7571 17.5669 26.7571H22.3642C23.8948 26.7571 25.14 25.5438 25.14 24.0524C25.14 23.9134 25.1291 23.7768 25.1083 23.6434C26.301 23.0902 27.1022 21.8611 27.1022 20.4546C27.1022 18.5262 25.5919 16.9573 23.7354 16.9573H20.8478C19.8051 16.9573 18.9569 16.0805 18.9569 15.0026C18.9569 13.926 19.8052 13.0501 20.8478 13.0501H26.3537C26.7671 13.0501 27.1022 12.7042 27.1022 12.2776C27.1022 11.8511 26.7671 11.5052 26.3537 11.5052H23.0262L23.0306 9.64587C23.0317 9.21918 22.6974 8.87259 22.284 8.87152C22.2834 8.87152 22.2827 8.87152 22.2821 8.87152C21.8696 8.87152 21.5348 9.21611 21.5336 9.64197L21.5292 11.5052H20.8479C18.9798 11.5052 17.46 13.0741 17.46 15.0026C17.46 16.9322 18.9799 18.5021 20.8479 18.5021H23.7354C24.749 18.5021 25.6053 19.3962 25.6053 20.4546C25.6053 21.2462 25.1246 21.9561 24.4369 22.2558C23.9281 21.6991 23.1876 21.3475 22.3642 21.3475H10.618C10.2776 20.176 10.1051 18.9617 10.1051 17.7297C10.1051 16.7496 10.2136 15.7835 10.4275 14.8449C10.5172 14.9057 10.6075 14.9642 10.6986 15.0204C11.1106 15.2751 11.4295 15.4025 11.7489 15.4025C12.068 15.4025 12.3874 15.2752 12.8006 15.0208C14.28 14.1083 15.5777 12.5924 16.6578 10.515C17.4447 9.00066 17.9329 7.4344 18.0983 5.92162C19.4356 5.41503 20.8408 5.15768 22.2823 5.15768C24.0027 5.15768 25.6643 5.52027 27.221 6.23526C27.3199 6.28068 27.4232 6.30221 27.5249 6.30221C27.8115 6.30221 28.085 6.13133 28.2091 5.84365C28.3771 5.45394 28.2073 4.99737 27.8296 4.82389C26.0802 4.02035 24.2137 3.61295 22.2822 3.61295C20.8612 3.61295 19.4711 3.83599 18.1358 4.27556C18.0302 3.43617 17.61 3.1573 16.977 2.80574L12.1053 0.0926584C11.8835 -0.0308861 11.6162 -0.0308861 11.3944 0.0926584L6.51998 2.80704C5.79175 3.21153 5.34502 3.51912 5.3356 4.69559C5.32001 6.57894 5.84021 8.59127 6.83987 10.5151C7.52513 11.8331 8.29893 12.9244 9.15156 13.7801C8.79101 15.0551 8.60798 16.3812 8.60798 17.7297C8.60798 19.025 8.77779 20.3032 9.11349 21.541C8.47186 21.7123 7.86431 21.9936 7.32073 22.3698C7.08063 21.1761 6.0009 20.2727 4.7086 20.2727H2.66231C1.19433 20.2727 0 21.4383 0 22.8711V33.1736C0 34.6052 1.19433 35.7699 2.66231 35.7699H4.7086C6.17657 35.7699 7.3709 34.6052 7.3709 33.1736V33.1572L12.1144 35.3527C12.1303 35.3601 12.1464 35.3668 12.1628 35.3729C13.6327 35.9299 15.5089 35.9678 20.7209 35.9956C24.6669 36 25.1822 36 25.931 36C27.8155 36 28.7791 35.8238 29.8529 34.7333C32.0869 32.6021 34.321 30.4727 36.5567 28.3418L37.0697 27.8529C37.6697 27.2818 38 26.5145 38 25.6926C38.0001 24.8707 37.6697 24.1034 37.0706 23.533ZM5.87398 33.1736C5.87398 33.7534 5.35126 34.2251 4.70867 34.2251H2.66231C2.01972 34.2251 1.497 33.7534 1.497 33.1736V22.8711C1.497 22.3 2.03063 21.8175 2.66231 21.8175H4.7086C5.34027 21.8175 5.87391 22.3 5.87391 22.8711L5.87398 33.1736ZM8.15911 9.78474C7.27783 8.08889 6.81908 6.33361 6.83259 4.70846C6.83415 4.51131 6.84833 4.42415 6.85604 4.3909C6.91594 4.3415 7.08174 4.24936 7.22951 4.16725L11.7499 1.64995L16.249 4.15553L16.2675 4.1658C16.4154 4.24798 16.5815 4.3402 16.6417 4.38983C16.6494 4.4233 16.6635 4.51108 16.665 4.70969C16.6804 6.33024 16.2217 8.08514 15.3385 9.78458C14.3884 11.612 13.2761 12.9275 12.033 13.6944C11.8672 13.7964 11.787 13.8359 11.7492 13.8511C11.7117 13.8358 11.632 13.7965 11.4678 13.695L11.4672 13.6947C10.239 12.9372 9.09508 11.5851 8.15911 9.78474ZM36.0545 26.7178L35.5412 27.207C33.3024 29.341 31.0652 31.4732 28.828 33.6074C28.8219 33.6132 28.8159 33.6191 28.81 33.6252C28.1794 34.2682 27.7251 34.4552 25.9312 34.4552C25.1825 34.4552 24.6674 34.4552 20.7257 34.4508C15.9554 34.4253 13.9528 34.3963 12.7023 33.9315L7.37105 31.464V24.3572C8.1617 23.4358 9.3446 22.8923 10.5848 22.8923H22.3643C22.8547 22.8923 23.281 23.1443 23.4955 23.5128C23.4996 23.5205 23.5034 23.5284 23.5077 23.5359C23.5936 23.6917 23.6432 23.8667 23.6432 24.0523C23.6432 24.692 23.0695 25.2123 22.3643 25.2123H17.5671C16.1617 25.2123 15.0183 26.3292 15.0183 27.7021C15.0183 29.0738 16.1618 30.1898 17.5658 30.1898L18.6421 30.1918C20.9264 30.196 23.9505 30.2016 25.9379 30.2071C25.9471 30.2072 25.956 30.2072 25.965 30.2072C27.295 30.2071 28.1533 29.9795 28.6641 29.4919L33.7267 24.6671C34.3575 24.065 35.4233 24.0649 36.0549 24.6678C36.344 24.943 36.5032 25.307 36.5032 25.6926C36.5031 26.0783 36.3439 26.4423 36.0545 26.7178Z" fill="#629D23"></path>
                                <path d="M30.4065 8.12344C30.5981 8.12344 30.7896 8.04807 30.9358 7.89726C31.2281 7.59556 31.2281 7.10651 30.9358 6.80481L30.9337 6.80267C30.6414 6.5012 30.1685 6.50211 29.8762 6.80381C29.5839 7.10544 29.585 7.59556 29.8773 7.89733C30.0234 8.04807 30.215 8.12344 30.4065 8.12344Z" fill="#629D23"></path>
                                <path d="M11.4216 9.51965C11.6166 9.51965 11.8112 9.44152 11.9577 9.28642L14.5992 6.48986C14.8877 6.18433 14.8817 5.69528 14.5856 5.39757C14.2897 5.09977 13.8158 5.10598 13.5272 5.41151L11.3978 7.66602L10.6588 6.95218C10.357 6.66066 9.88343 6.67667 9.60081 6.98833C9.31833 7.29975 9.33399 7.78857 9.63577 8.08008L10.9103 9.31124C11.0545 9.45049 11.2382 9.51965 11.4216 9.51965Z" fill="#629D23"></path>
                            </svg> 