<svg width="42" height="36" viewBox="0 0 42 36" fill="none" xmlns="http://www.w3.org/2000/svg">
                                <path d="M20.7688 5.67536C21.2168 5.67536 21.5801 5.31711 21.5801 4.87534V0.800023C21.5801 0.35825 21.2169 0 20.7688 0C20.3208 0 19.9575 0.35817 19.9575 0.800023V4.87534C19.9576 5.31711 20.3208 5.67536 20.7688 5.67536Z" fill="#629D23"></path>
                                <path d="M14.6693 6.98956C14.8235 7.23093 15.0869 7.36309 15.3564 7.36309C15.5042 7.36309 15.6539 7.32325 15.7881 7.23981C16.1672 7.00428 16.2807 6.51027 16.0419 6.13642L13.8803 2.75432C13.6414 2.38055 13.1404 2.26847 12.7614 2.50407C12.3824 2.7396 12.2688 3.23361 12.5076 3.60746L14.6693 6.98956Z" fill="#629D23"></path>
                                <path d="M25.7522 7.24005C25.8865 7.32333 26.036 7.36309 26.1837 7.36309C26.4532 7.36309 26.7168 7.23077 26.871 6.98924L29.0304 3.60714C29.269 3.23321 29.1552 2.73936 28.776 2.50383C28.3967 2.26855 27.896 2.38087 27.6572 2.75464L25.4979 6.13674C25.2592 6.51075 25.3731 7.0046 25.7522 7.24005Z" fill="#629D23"></path>
                                <path d="M41.2769 18.8346L39.8673 16.379C39.6464 15.9943 39.1514 15.8591 38.7617 16.0769C38.3717 16.2945 38.2346 16.7826 38.4554 17.1671L39.8643 19.6217C39.9349 19.745 39.9166 19.864 39.8994 19.9239C39.8828 19.9816 39.8373 20.0881 39.718 20.1531L37.5455 21.3397C37.3525 21.4449 37.1006 21.3785 36.9954 21.1954L36.4434 20.2327C36.4412 20.2283 36.4386 20.2243 36.4362 20.2201L30.7304 10.2683C30.6599 10.1458 30.6777 10.0284 30.6946 9.96925C30.7109 9.91205 30.7562 9.80636 30.8754 9.74132L33.0505 8.55441C33.2459 8.44768 33.4917 8.51249 33.5985 8.69921L34.8702 10.9147C35.0909 11.2993 35.5861 11.4344 35.9758 11.2169C36.3658 10.9993 36.5029 10.5111 36.2822 10.1266L35.0112 7.91207C34.4691 6.96436 33.2373 6.62443 32.2653 7.15429L30.0902 8.3412C29.6196 8.59769 29.2796 9.02162 29.1329 9.53516C28.9945 10.0193 29.044 10.5248 29.2706 10.9684L28.0725 11.3108C27.5621 11.4564 27.2523 11.5354 27.0804 11.5354C27.0797 11.5354 27.079 11.5354 27.0784 11.5354C26.96 11.535 26.8309 11.4904 26.4625 11.3528C26.2954 11.2904 26.0873 11.2126 25.8315 11.1246L23.7087 10.3929C22.5347 9.98853 22.0052 10.0103 21.238 10.0793L17.6183 10.3988C15.9682 10.5429 14.9162 10.91 14.3355 11.5466L12.2727 10.9572C12.4947 10.5155 12.5423 10.0149 12.4052 9.53516C12.2585 9.02194 11.9187 8.59809 11.4486 8.3416L9.27479 7.15413C8.30188 6.62379 7.06944 6.96388 6.52725 7.91135L0.26371 18.8335C-0.00442359 19.299 -0.0707877 19.8405 0.0770307 20.3582C0.223875 20.8723 0.563809 21.2966 1.03355 21.5528L3.20734 22.7401C3.51815 22.9095 3.85581 22.99 4.18901 22.99C4.89687 22.99 5.58501 22.6269 5.95488 21.983L6.18456 21.5823C6.81137 21.8544 7.33765 22.2497 7.69633 22.7177C7.34601 23.1214 7.12534 23.6196 7.06344 24.1614C6.98166 24.878 7.18692 25.5811 7.6414 26.1415C8.092 26.6971 8.73633 27.0477 9.45684 27.1302C9.38058 27.8407 9.58665 28.5369 10.0377 29.0911C10.5038 29.6658 11.1627 30.0011 11.8519 30.0802C11.7759 30.7897 11.9813 31.4852 12.4309 32.0397C12.8812 32.5965 13.5257 32.9478 14.247 33.0304C14.1706 33.7415 14.3767 34.438 14.8277 34.9923C15.3653 35.655 16.1589 36.0001 16.96 36C17.5581 36 18.1604 35.8077 18.6633 35.4117L20.362 34.0713C20.4969 33.9651 20.6195 33.8478 20.7297 33.7214L21.7001 34.4857C22.2018 34.8806 22.8028 35.0725 23.4 35.0724C24.2016 35.0723 24.9965 34.7268 25.5348 34.0635C25.8185 33.7137 25.9981 33.3145 26.0793 32.9024C26.363 32.9992 26.6625 33.0492 26.9679 33.0491C27.0703 33.0491 27.1733 33.0435 27.2767 33.0322C28.0036 32.9526 28.6536 32.6001 29.1052 32.0416C29.5571 31.4865 29.7631 30.7904 29.6869 30.08C30.3757 30.0007 31.0348 29.6655 31.5024 29.091C31.9681 28.5168 32.155 27.8099 32.0818 27.1301C32.8019 27.0473 33.4459 26.6969 33.8955 26.1425C34.3503 25.5836 34.5564 24.8816 34.4759 24.1656C34.4147 23.622 34.1939 23.1222 33.8429 22.7174C34.2005 22.2495 34.7258 21.8538 35.353 21.5818L35.5831 21.9833C35.9528 22.627 36.6406 22.9899 37.3486 22.9899C37.682 22.9899 38.0199 22.9094 38.3311 22.7398L40.5037 21.553C40.9732 21.297 41.313 20.8733 41.4604 20.3601C41.609 19.8429 41.5441 19.3014 41.2769 18.8346ZM4.54274 21.195C4.43727 21.3787 4.1852 21.4449 3.993 21.3401L1.81929 20.1528C1.7006 20.088 1.65533 19.9819 1.63878 19.9244C1.62182 19.8648 1.60373 19.7465 1.67529 19.6225L7.9398 8.69817C8.01152 8.57281 8.14668 8.50257 8.28703 8.50257C8.35535 8.50257 8.42479 8.51913 8.48889 8.55409L10.662 9.74116C10.6623 9.74132 10.6625 9.74148 10.6628 9.74156C10.7817 9.80644 10.8269 9.91213 10.8433 9.96933C10.8601 10.0284 10.878 10.1459 10.8067 10.2697L4.54274 21.195ZM10.4631 25.3119C10.2343 25.4927 9.94541 25.5743 9.65018 25.5419C9.35478 25.5096 9.09152 25.3677 8.90865 25.1422C8.72538 24.9162 8.64279 24.6314 8.67597 24.3404C8.70899 24.0505 8.853 23.7922 9.08292 23.6118L12.1203 21.2177C12.597 20.8424 13.2948 20.9196 13.6758 21.3888C13.8589 21.6146 13.9416 21.899 13.9085 22.1891C13.8756 22.4783 13.7315 22.7364 13.5029 22.9158C13.4978 22.9197 13.4935 22.9241 13.4887 22.9282L10.4638 25.3114C10.4636 25.3115 10.4633 25.3118 10.4631 25.3119ZM11.3039 28.0907C11.1208 27.8657 11.0381 27.5821 11.0708 27.2921C11.1035 27.002 11.2476 26.7425 11.4766 26.5614C11.4767 26.5613 11.4771 26.561 11.4773 26.5609C11.4772 26.561 11.4774 26.5609 11.4773 26.5609L15.8525 23.1139C16.3291 22.7386 17.0271 22.8152 17.408 23.2851C17.5909 23.5106 17.6736 23.7946 17.6409 24.0847C17.6081 24.3751 17.4635 24.6346 17.234 24.8154L12.8602 28.261C12.383 28.6365 11.6852 28.5607 11.3039 28.0907ZM14.4402 31.442C14.1449 31.4097 13.8819 31.2676 13.6988 31.0412C13.5158 30.8157 13.4332 30.5317 13.4659 30.2416C13.4986 29.9514 13.643 29.6921 13.8722 29.5113C13.8723 29.5112 13.8726 29.511 13.8727 29.5109L16.9003 27.1258C16.9039 27.1231 16.9078 27.1208 16.9114 27.118C17.3868 26.7427 18.0845 26.8191 18.4658 27.2877C18.6491 27.5137 18.7318 27.7985 18.6986 28.0895C18.6655 28.3794 18.5215 28.6377 18.2916 28.8181L15.2544 31.2122C15.0249 31.3929 14.7356 31.4742 14.4402 31.442ZM19.7557 32.0915C19.7228 32.3817 19.5787 32.6406 19.3491 32.8214L17.6503 34.162C17.173 34.5376 16.4753 34.462 16.0941 33.9919C15.911 33.7671 15.8282 33.4832 15.8609 33.1927C15.8936 32.9022 16.0376 32.6431 16.2661 32.4631C16.2664 32.4629 16.2667 32.4627 16.267 32.4625L17.9653 31.1238C17.9662 31.1231 17.9672 31.1225 17.9681 31.1219C18.4449 30.7466 19.1427 30.8235 19.5237 31.293C19.7061 31.5181 19.7886 31.8016 19.7557 32.0915ZM32.6292 25.1422C32.4463 25.3676 32.183 25.5096 31.8877 25.5419C31.5926 25.5747 31.3035 25.4927 31.0748 25.3119C31.0747 25.3119 31.0745 25.3118 31.0743 25.3117C31.0743 25.3116 31.0741 25.3115 31.074 25.3115L28.9032 23.6011C28.553 23.3252 28.0425 23.3816 27.763 23.7267C27.4833 24.0718 27.5403 24.5753 27.8903 24.851L30.0605 26.5608C30.5365 26.9368 30.615 27.6235 30.2361 28.0906C29.8538 28.5604 29.156 28.6368 28.6796 28.2606L26.3249 26.4076C25.9747 26.132 25.4642 26.1886 25.1847 26.5339C24.9053 26.8792 24.9626 27.3825 25.3128 27.6582L27.6665 29.5103C27.8958 29.6914 28.0402 29.9511 28.073 30.2416C28.1056 30.5315 28.0229 30.8152 27.8382 31.042C27.6558 31.2676 27.3928 31.4096 27.0975 31.442C26.802 31.4741 26.5127 31.3927 26.2841 31.2128L25.1124 30.2888C25.1104 30.2872 25.1086 30.2855 25.1066 30.2839L23.9316 29.3576C23.5815 29.0816 23.0711 29.1376 22.7913 29.4826C22.7564 29.5258 22.7266 29.5714 22.7021 29.6188C22.5846 29.8452 22.5866 30.1107 22.6968 30.3334C22.7478 30.4365 22.8213 30.5306 22.9182 30.607L24.0963 31.5361C24.5692 31.9127 24.6465 32.5971 24.2679 33.0639C23.8868 33.5336 23.1889 33.6103 22.7125 33.2355L21.3759 32.1825C21.4315 31.4978 21.2258 30.83 20.7906 30.2934C20.5201 29.9601 20.1846 29.7076 19.8162 29.5382C20.0862 29.1688 20.2576 28.7349 20.3109 28.2683C20.3926 27.5518 20.1874 26.8488 19.7321 26.2874C19.4615 25.9549 19.1265 25.703 18.7588 25.534C19.0293 25.1635 19.2007 24.7287 19.2534 24.2615C19.3341 23.5466 19.1287 22.8449 18.675 22.2854C17.8944 21.323 16.5743 21.0304 15.4755 21.4903C15.3876 21.0921 15.2079 20.7164 14.9426 20.3892C14.0033 19.2318 12.2832 19.0424 11.1075 19.9674L8.93518 21.6797C8.44394 21.0615 7.77616 20.5488 6.98661 20.1832L11.4552 12.3893L13.8344 13.0691C13.8452 13.1946 13.8658 13.3266 13.9003 13.4665C14.4763 15.8016 16.6565 16.8896 19.5904 16.3066C22.0625 15.8161 23.0802 16.5468 25.107 18.0023C25.3173 18.1532 25.5358 18.3101 25.7645 18.4717C27.2221 19.5029 28.7798 20.715 29.8242 21.5365L32.4577 23.612C32.6865 23.792 32.8305 24.0512 32.8632 24.3419C32.8959 24.6324 32.8131 24.9162 32.6292 25.1422ZM32.604 21.6792L30.8367 20.2864C29.7779 19.4535 28.1982 18.2244 26.7099 17.1715C26.4844 17.0122 26.2693 16.8577 26.0622 16.709C23.9605 15.1998 22.4415 14.1094 19.2703 14.7383C18.2997 14.9312 15.9871 15.1567 15.4771 13.0888C15.4052 12.7968 15.4782 12.6965 15.5093 12.6537C15.6178 12.5046 16.0542 12.1416 17.7619 11.9925L21.3854 11.6727C21.9759 11.6196 22.2721 11.5929 23.1733 11.9033L25.2963 12.6352C25.5323 12.7164 25.721 12.7868 25.8876 12.8491C26.9098 13.2309 27.1807 13.2309 28.5236 12.8476L30.0888 12.4004L34.5513 20.1837C33.7615 20.5491 33.0944 21.0613 32.604 21.6792Z" fill="#629D23"></path>
                                <path d="M37.366 14.4479C37.814 14.4479 38.1773 14.0885 38.1773 13.6466C38.1773 13.2048 37.814 12.8466 37.366 12.8466C36.918 12.8466 36.5547 13.2049 36.5547 13.6466V13.6489C36.5547 14.0907 36.918 14.4479 37.366 14.4479Z" fill="#629D23"></path>
                            </svg>   