<svg width="36" height="36" viewBox="0 0 36 36" fill="none" xmlns="http://www.w3.org/2000/svg">
                                <path d="M22.2188 18.2812C21.8306 18.2812 21.5156 18.5963 21.5156 18.9844C21.5156 19.3725 21.8306 19.6875 22.2188 19.6875C22.6069 19.6875 22.9219 19.3725 22.9219 18.9844C22.9219 18.5963 22.6069 18.2812 22.2188 18.2812Z" fill="#629D23"></path>
                                <path d="M0.174718 16.6358C0.176617 16.638 0.178304 16.6404 0.180273 16.6425L0.181047 16.6435L17.4784 35.7685C17.6073 35.9111 17.8027 36 18 36C18.1966 36 18.3916 35.912 18.5215 35.7685L35.8189 16.6435L35.8196 16.6425C35.8216 16.6404 35.8232 16.638 35.8252 16.6358C36.0506 16.3794 36.0565 16.0029 35.8519 15.7406C35.8499 15.738 35.8485 15.7352 35.8464 15.7326L30.2213 8.70138C30.0879 8.5346 29.8858 8.4375 29.6722 8.4375C26.8057 8.4375 8.66014 8.4375 6.32774 8.4375C6.11412 8.4375 5.91211 8.5346 5.77865 8.70138L0.153483 15.7326C0.151444 15.7352 0.150038 15.738 0.147999 15.7406C-0.0586557 16.0057 -0.0481085 16.3823 0.174718 16.6358ZM14.1791 9.84375H21.8207L25.1958 15.4688H10.804L14.1791 9.84375ZM10.6409 16.875H25.3589L17.9999 33.555L10.6409 16.875ZM26.896 16.875H33.7134L20.4033 31.5913L26.896 16.875ZM9.10383 16.875L15.5965 31.5913L2.28648 16.875H9.10383ZM33.8343 15.4688H26.8358L23.4607 9.84375H29.3342L33.8343 15.4688ZM6.6656 9.84375H12.5391L9.16402 15.4688H2.16547L6.6656 9.84375Z" fill="#629D23"></path>
                                <path d="M19.4062 18.2812H14.1874C13.7991 18.2812 13.4843 18.596 13.4843 18.9844C13.4843 19.3727 13.7991 19.6875 14.1874 19.6875H19.4062C19.7945 19.6875 20.1093 19.3727 20.1093 18.9844C20.1093 18.596 19.7945 18.2812 19.4062 18.2812Z" fill="#629D23"></path>
                                <path d="M17.9999 5.625C18.3882 5.625 18.703 5.31021 18.703 4.92188V0.703125C18.703 0.314789 18.3882 0 17.9999 0C17.6115 0 17.2967 0.314789 17.2967 0.703125V4.92188C17.2967 5.31021 17.6115 5.625 17.9999 5.625Z" fill="#629D23"></path>
                                <path d="M22.716 5.41905L25.5286 2.60655C25.8032 2.33198 25.8032 1.88677 25.5286 1.61212C25.254 1.33748 24.8088 1.33755 24.5342 1.61212L21.7216 4.42463C21.447 4.6992 21.447 5.14441 21.7216 5.41905C21.9961 5.69362 22.4414 5.6937 22.716 5.41905Z" fill="#629D23"></path>
                                <path d="M13.2838 5.41905C13.5584 5.69362 14.0036 5.69362 14.2783 5.41905C14.5529 5.14448 14.5529 4.69927 14.2783 4.42463L11.4657 1.61213C11.1911 1.33755 10.7459 1.33755 10.4712 1.61213C10.1966 1.8867 10.1967 2.33191 10.4712 2.60655L13.2838 5.41905Z" fill="#629D23"></path>
                            </svg>  