<svg width="40" height="36" viewBox="0 0 40 36" fill="none" xmlns="http://www.w3.org/2000/svg">
                                <path d="M39.7498 4.92493C39.7498 4.92057 39.7493 4.91622 39.7491 4.91179C39.7487 4.89446 39.7477 4.87735 39.7457 4.86041C39.7449 4.85419 39.7437 4.84797 39.7428 4.84175C39.7405 4.82612 39.7376 4.81073 39.734 4.79565C39.7326 4.78967 39.7311 4.78376 39.7294 4.77777C39.7249 4.76137 39.7198 4.74528 39.7139 4.72942C39.7128 4.72639 39.7121 4.72328 39.7109 4.72032L38.1314 0.671645C37.9722 0.263683 37.5866 0 37.1491 0H34.2731C33.9596 0 33.7055 0.254432 33.7055 0.568333C33.7055 0.882233 33.9596 1.13667 34.2731 1.13667H37.0941L38.3511 4.35877H26.467L25.7224 1.13667H30.1114C30.4249 1.13667 30.679 0.882233 30.679 0.568333C30.679 0.254432 30.4249 0 30.1114 0H7.14849C6.71093 0 6.32539 0.263683 6.16616 0.6718L4.58664 4.72032C4.58548 4.72336 4.58486 4.72647 4.58369 4.72942C4.57779 4.7452 4.57267 4.76129 4.56816 4.77777C4.56653 4.78376 4.56498 4.78967 4.56358 4.79565C4.56001 4.81081 4.55714 4.8262 4.55481 4.84175C4.55388 4.84797 4.55271 4.85419 4.55194 4.86041C4.55 4.87735 4.54891 4.89446 4.54844 4.91179C4.54837 4.91614 4.54782 4.9205 4.54775 4.92493C4.54775 4.92563 4.54767 4.92633 4.54767 4.92703V13.2767C4.54767 13.5906 4.80177 13.8451 5.11527 13.8451C5.42877 13.8451 5.68287 13.5906 5.68287 13.2767V5.49544H17.7144V14.1342C17.7144 14.472 17.9131 14.7798 18.2208 14.9184C18.3334 14.9692 18.4534 14.994 18.5725 14.994C18.7787 14.994 18.9827 14.9198 19.1426 14.7779L22.1488 12.1112L25.155 14.7778C25.4074 15.0019 25.7693 15.057 26.077 14.9184C26.3846 14.7798 26.5833 14.472 26.5833 14.1342V5.49544H38.6147V30.9871C38.6147 31.3949 38.2833 31.7267 37.876 31.7267H27.4686C27.4686 31.7203 27.4678 31.7138 27.4678 31.7074C27.4671 31.6564 27.4653 31.6055 27.4609 31.5549C28.4381 31.8143 29.4823 31.3115 29.8739 30.3499C30.0798 29.844 30.0768 29.2882 29.8652 28.7848C29.8453 28.7374 29.8233 28.6914 29.8002 28.646C29.7959 28.6377 29.7918 28.6293 29.7875 28.6211C29.7648 28.5779 29.7406 28.5356 29.715 28.4945C29.71 28.4865 29.7049 28.4787 29.6999 28.4708C29.6729 28.4286 29.6448 28.3872 29.6149 28.3473C29.6144 28.3465 29.6138 28.3458 29.6132 28.3451C29.5836 28.3057 29.5522 28.2678 29.5198 28.2307C29.5139 28.2239 29.5081 28.2171 29.5021 28.2103C29.4701 28.1746 29.4368 28.14 29.4023 28.1066C29.3955 28.1001 29.3887 28.0938 29.3819 28.0874C29.3458 28.0534 29.3088 28.0204 29.2703 27.9892C29.269 27.9882 29.2677 27.9872 29.2664 27.9862C29.2285 27.9557 29.1891 27.9267 29.149 27.8989C29.1418 27.8939 29.1346 27.8887 29.1272 27.8837C29.0871 27.8567 29.0459 27.8311 29.0037 27.8068C29.0002 27.8048 28.997 27.8024 28.9935 27.8004C29.2334 27.5925 29.4227 27.3295 29.546 27.0268C29.752 26.5209 29.7489 25.9651 29.5374 25.4616C29.3523 25.0211 29.0269 24.6668 28.6102 24.4469C28.5506 24.4155 28.4892 24.3868 28.4261 24.3611L19.5921 20.7544L23.7042 19.48C24.6825 19.1767 25.2334 18.1319 24.9324 17.1511C24.82 16.785 24.5973 16.4762 24.3096 16.2505C23.8814 15.9146 23.3092 15.763 22.7416 15.8823C22.7389 15.8829 22.7363 15.8834 22.7336 15.8841C22.7021 15.8912 19.5498 16.6009 16.2574 17.2437C16.1114 17.2722 15.9691 17.2997 15.8288 17.3268C15.7165 17.3484 15.6058 17.3697 15.4972 17.3904C15.466 17.3964 15.4347 17.4023 15.4037 17.4082C15.212 17.4446 15.0262 17.4796 14.8456 17.5131C14.7729 17.5267 14.7009 17.54 14.63 17.5531C10.4953 18.3158 9.3338 18.3294 9.01146 18.2858C9.01021 18.2856 9.00913 18.2855 9.00789 18.2852C9.00299 18.2845 8.99818 18.2838 8.99368 18.2831C8.99042 18.2826 8.98739 18.282 8.98436 18.2816C8.98219 18.2812 8.97986 18.2808 8.97776 18.2805C8.95765 18.2768 8.94197 18.273 8.92986 18.2694L8.83685 18.2314L8.95276 17.9468C9.06673 17.667 9.06503 17.3595 8.94803 17.0809C8.91876 17.0113 8.88312 16.9455 8.84182 16.8842C8.71791 16.7006 8.54269 16.5575 8.33307 16.4719L5.28444 15.2273C5.00503 15.1131 4.69782 15.1149 4.41965 15.232C4.1414 15.3492 3.92549 15.5679 3.81152 15.8476L0.083647 25.0021C-0.151592 25.5798 0.126425 26.2413 0.703342 26.4769L3.75205 27.7217C3.89125 27.7785 4.03527 27.8054 4.17711 27.8054C4.62298 27.8054 5.04641 27.5394 5.22489 27.1012L5.25292 27.0324L5.95584 27.3193C5.95623 27.3195 5.95662 27.3197 5.95708 27.3198C6.62941 27.5943 7.24888 27.986 7.78503 28.472C7.88254 28.5604 7.97726 28.6519 8.0691 28.7463C8.16095 28.8408 8.24976 28.9382 8.33555 29.0385C8.37841 29.0887 8.42057 29.1396 8.46179 29.1911C9.24305 30.1666 10.2672 30.9317 11.4235 31.4038L12.2143 31.7267H6.42166C6.01438 31.7267 5.68295 31.3948 5.68295 30.987V29.5489C5.68295 29.235 5.42884 28.9806 5.11535 28.9806C4.80185 28.9806 4.54775 29.235 4.54775 29.5489V30.987C4.54775 32.0216 5.38832 32.8633 6.42166 32.8633H14.9984L22.3103 35.8486C22.562 35.9513 22.8224 36.0001 23.0788 36C23.8846 36 24.6499 35.5192 24.9725 34.7271C25.1048 34.4023 25.1473 34.0627 25.1116 33.7363C25.492 33.791 25.8863 33.7408 26.2437 33.5863C26.607 33.4292 26.9081 33.1789 27.1219 32.8632H37.8761C38.9094 32.8632 39.75 32.0216 39.75 30.9869V4.9271C39.7499 4.92633 39.7498 4.92571 39.7498 4.92493ZM19.7404 1.13667H24.5572L25.3018 4.35877H18.9958L19.7404 1.13667ZM17.8307 4.35877H5.94645L7.20346 1.13667H18.5753L17.8307 4.35877ZM25.4483 13.5193L22.7183 11.0978C22.556 10.9539 22.3524 10.8819 22.149 10.8819C21.9454 10.8819 21.7417 10.9539 21.5794 11.0978L18.8496 13.5193V5.49544H25.4483V13.5193ZM4.17571 26.6671L1.13679 25.4264L4.8607 16.2819L7.89962 17.5226L4.17571 26.6671ZM26.2007 29.8309C26.2004 29.8307 26.2001 29.8307 26.1998 29.8305C26.1996 29.8304 26.1993 29.8303 26.1991 29.8302C26.1992 29.8302 26.199 29.8302 26.1991 29.8302L19.4145 27.0603C19.1243 26.9418 18.793 27.0813 18.6746 27.372C18.5562 27.6627 18.6956 27.9944 18.986 28.1129L25.7705 30.8828C25.7988 30.8944 25.8262 30.9072 25.8527 30.9213C25.8601 30.9253 25.867 30.9301 25.8743 30.9342C25.893 30.9448 25.9117 30.9554 25.9293 30.9671C25.9378 30.9728 25.9455 30.9793 25.9538 30.9852C25.9694 30.9964 25.9853 31.0074 26 31.0196C26.009 31.0269 26.017 31.035 26.0257 31.0427C26.0389 31.0544 26.0524 31.0657 26.0648 31.0782C26.0734 31.0867 26.0811 31.0961 26.0893 31.105C26.1007 31.1173 26.1125 31.1293 26.1232 31.1422C26.1313 31.1521 26.1385 31.1626 26.1462 31.1728C26.1559 31.1855 26.166 31.1981 26.1749 31.2113C26.1825 31.2223 26.1889 31.234 26.1959 31.2452C26.204 31.2583 26.2125 31.2711 26.2199 31.2846C26.2266 31.2967 26.2322 31.3094 26.2383 31.3217C26.2448 31.335 26.2519 31.3481 26.2578 31.3617C26.2635 31.3747 26.268 31.3883 26.2731 31.4016C26.2782 31.415 26.2838 31.4282 26.2883 31.4419C26.2928 31.4557 26.2962 31.4697 26.3 31.4837C26.3038 31.4974 26.3081 31.5109 26.3113 31.5249C26.3145 31.5389 26.3165 31.5532 26.319 31.5674C26.3216 31.5815 26.3246 31.5955 26.3264 31.6098C26.3283 31.6241 26.329 31.6386 26.3301 31.653C26.3313 31.6674 26.333 31.6818 26.3335 31.6963C26.3339 31.7105 26.3332 31.7249 26.3331 31.7392C26.3329 31.7539 26.3332 31.7687 26.3322 31.7836C26.3314 31.7976 26.3293 31.8117 26.3277 31.8258C26.3261 31.8409 26.3249 31.8561 26.3224 31.8712C26.3201 31.885 26.3166 31.8988 26.3138 31.9126C26.3105 31.9279 26.3078 31.9432 26.3037 31.9585C26.3001 31.9719 26.2953 31.9853 26.291 31.9987C26.2862 32.0139 26.2818 32.0291 26.2761 32.0441C26.2713 32.0545 26.2666 32.0649 26.2621 32.0754C26.2611 32.0778 26.2606 32.0803 26.2596 32.0826C26.171 32.2876 26.0073 32.4505 25.7936 32.5429C25.5584 32.6445 25.289 32.6481 25.0546 32.5523L23.8525 32.0615C23.8469 32.0593 23.8413 32.0577 23.8357 32.0556C23.83 32.0531 23.8247 32.0501 23.8189 32.0478L18.3008 29.7949C18.0104 29.6764 17.6793 29.8159 17.5609 30.1066C17.4425 30.3973 17.5819 30.729 17.8722 30.8475L23.3903 33.1004C23.3962 33.1028 23.4022 33.1045 23.4081 33.1067C23.4135 33.1091 23.4185 33.1119 23.424 33.1141C23.8871 33.3032 24.1103 33.8343 23.9215 34.298C23.7326 34.7619 23.2024 34.9855 22.7391 34.7962L15.3252 31.7693C15.3249 31.7691 15.3245 31.7689 15.3242 31.7688L11.8523 30.3513C11.2412 30.1017 10.6737 29.7554 10.1727 29.3293C9.87206 29.0737 9.59544 28.7894 9.34762 28.48C9.10346 28.1752 8.83561 27.8909 8.54742 27.6296C7.91337 27.0549 7.18087 26.5918 6.38595 26.2672C6.38602 26.2672 6.38587 26.2672 6.38595 26.2672L5.68186 25.9798L8.40853 19.2841L8.50628 19.3239C8.59828 19.3615 8.72948 19.4148 9.08257 19.4282C9.5237 19.4482 10.2535 19.4021 11.5609 19.2171C12.4502 19.0913 13.5411 18.9094 14.8146 18.6748C14.8459 18.6691 14.877 18.6633 14.9087 18.6575C14.9683 18.6465 15.0284 18.6353 15.0888 18.6241C15.1358 18.6154 15.183 18.6065 15.2306 18.5976C15.2848 18.5874 15.3392 18.5772 15.394 18.5669C15.4522 18.5559 15.511 18.5448 15.5702 18.5335C15.6175 18.5245 15.6648 18.5155 15.7127 18.5065C15.7848 18.4927 15.8581 18.4786 15.9317 18.4645C15.9696 18.4572 16.0071 18.45 16.0453 18.4427C16.1581 18.4209 16.2723 18.3989 16.3886 18.3762C19.6696 17.7373 22.8363 17.026 22.9787 16.994C22.9929 16.9911 23.0071 16.9893 23.0213 16.9872C23.3859 16.9332 23.7431 17.1444 23.8476 17.485C23.8844 17.6047 23.8886 17.7268 23.8655 17.8417C23.8146 18.0946 23.6311 18.3128 23.3688 18.394L17.7415 20.138C17.5124 20.209 17.3526 20.4164 17.3423 20.6563C17.3319 20.8961 17.4731 21.1166 17.6951 21.2073L27.9978 25.4137C28.2221 25.5052 28.3974 25.6788 28.4914 25.9025C28.5853 26.1261 28.5867 26.373 28.4952 26.5976C28.4037 26.8223 28.2304 26.9978 28.007 27.0918C27.8954 27.1388 27.7779 27.1626 27.6603 27.1633C27.6586 27.1633 27.6569 27.1631 27.6552 27.1631C27.6275 27.1631 27.6 27.162 27.5724 27.1594C27.5643 27.1586 27.5562 27.1569 27.548 27.156C27.527 27.1534 27.5059 27.151 27.4851 27.147C27.4719 27.1444 27.4588 27.1405 27.4457 27.1374C27.43 27.1337 27.4143 27.1305 27.3987 27.1259C27.3827 27.1212 27.3669 27.1149 27.3511 27.1092C27.3385 27.1047 27.3257 27.1009 27.3133 27.0959L20.5281 24.3257C20.2378 24.2071 19.9067 24.3467 19.7883 24.6374C19.6699 24.928 19.8092 25.2597 20.0996 25.3783L28.3256 28.7368C28.3817 28.7596 28.4347 28.7877 28.4842 28.8203C28.6325 28.9183 28.7488 29.0578 28.8192 29.2256C28.9014 29.4212 28.9127 29.6347 28.8529 29.8355C28.8444 29.8642 28.8344 29.8926 28.823 29.9207C28.8112 29.9497 28.7981 29.9777 28.7837 30.0048C28.7502 30.0678 28.7095 30.1247 28.664 30.1765C28.6357 30.2087 28.6055 30.2387 28.5734 30.2662C28.5682 30.2706 28.5636 30.2756 28.5584 30.2797C28.3513 30.4494 28.0743 30.5223 27.8038 30.4676C27.7489 30.4564 27.6943 30.4407 27.6406 30.4187L26.2007 29.8309Z" fill="#629D23"></path>
                            </svg>    